<svg xmlns="http://www.w3.org/2000/svg" width="15" height="12.769" viewBox="0 0 15 12.769">
  <g id="Grupo_657" data-name="Grupo 657" transform="translate(-2075.001 -1233.53)">
    <path id="Trazado_371" data-name="Trazado 371" d="M2086.814,1244.775h-2.2a.75.75,0,0,1,0-1.5h2.2a1.686,1.686,0,0,0,.361-3.333.75.75,0,0,1-.581-.856,3.521,3.521,0,0,0,.053-.575,3.48,3.48,0,0,0-6.822-.971.744.744,0,0,1-.741.541,2.6,2.6,0,0,0,.014,5.194h3.2a.75.75,0,0,1,0,1.5h-3.2a4.1,4.1,0,0,1-.536-8.16,4.98,4.98,0,0,1,9.585,1.9c0,.061,0,.122,0,.183a3.185,3.185,0,0,1-1.329,6.081Z" fill="#ff6d00"/>
    <g id="Grupo_457" data-name="Grupo 457">
      <path id="Trazado_372" data-name="Trazado 372" d="M2084.519,1241.374a.564.564,0,0,1-.4-.164l-1.62-1.621-1.621,1.621a.562.562,0,0,1-.795-.8l2.018-2.018a.561.561,0,0,1,.795,0l2.019,2.018a.562.562,0,0,1-.4.96Z" fill="#ff6d00"/>
      <path id="Trazado_373" data-name="Trazado 373" d="M2082.5,1246.3a.563.563,0,0,1-.563-.562v-6.943a.563.563,0,1,1,1.125,0v6.943A.562.562,0,0,1,2082.5,1246.3Z" fill="#ff6d00"/>
    </g>
  </g>
</svg>
