<svg id="Grupo_392" data-name="Grupo 392" xmlns="http://www.w3.org/2000/svg" width="16.387" height="12.851" viewBox="0 0 16.387 12.851">
  <path id="Trazado_291" data-name="Trazado 291" d="M2210.765,1104.787h-14.706a.84.84,0,0,1,0-1.681h14.706a.84.84,0,0,1,0,1.681Z" transform="translate(-2195.218 -1103.106)" fill="#44546a"/>
  <path id="Trazado_292" data-name="Trazado 292" d="M2212.627,1131.371h-4.9a.84.84,0,0,1,0-1.681h4.9a.84.84,0,0,1,0,1.681Z" transform="translate(-2201.983 -1118.52)" fill="#44546a"/>
  <path id="Trazado_293" data-name="Trazado 293" d="M2211.7,1118.079h-9.8a.84.84,0,0,1,0-1.681h9.8a.84.84,0,0,1,0,1.681Z" transform="translate(-2198.6 -1110.813)" fill="#44546a"/>
</svg>
