<svg xmlns="http://www.w3.org/2000/svg" width="15" height="14.676" viewBox="0 0 15 14.676">
  <g id="Grupo_656" data-name="Grupo 656" transform="translate(-2326.413 -1231.048)">
    <path id="Trazado_366" data-name="Trazado 366" d="M2339.163,1242.863a.75.75,0,0,1,0-1.5.752.752,0,0,0,.75-.75v-4.13a.752.752,0,0,0-.75-.75h-10.5a.751.751,0,0,0-.75.75v4.13a.751.751,0,0,0,.75.75.75.75,0,0,1,0,1.5,2.252,2.252,0,0,1-2.25-2.25v-4.13a2.252,2.252,0,0,1,2.25-2.25h10.5a2.252,2.252,0,0,1,2.25,2.25v4.13A2.252,2.252,0,0,1,2339.163,1242.863Z" fill="#ff6d00"/>
    <path id="Trazado_367" data-name="Trazado 367" d="M2338.294,1235.733a.75.75,0,0,1-.75-.75v-2.435h-7.262v2.435a.75.75,0,0,1-1.5,0V1231.8a.75.75,0,0,1,.75-.75h8.762a.75.75,0,0,1,.75.75v3.185A.75.75,0,0,1,2338.294,1235.733Z" fill="#ff6d00"/>
    <path id="Trazado_368" data-name="Trazado 368" d="M2338.294,1245.724h-8.762a.75.75,0,0,1-.75-.75v-6.951a.75.75,0,0,1,1.5,0v6.2h7.262v-5.451h-5.817a.75.75,0,0,1,0-1.5h6.567a.75.75,0,0,1,.75.75v6.951A.75.75,0,0,1,2338.294,1245.724Z" fill="#ff6d00"/>
    <path id="Trazado_369" data-name="Trazado 369" d="M2335.857,1241.126h-3.695a.563.563,0,0,1,0-1.125h3.695a.563.563,0,1,1,0,1.125Z" fill="#ff6d00"/>
    <path id="Trazado_370" data-name="Trazado 370" d="M2335.857,1242.914h-3.695a.563.563,0,0,1,0-1.125h3.695a.563.563,0,1,1,0,1.125Z" fill="#ff6d00"/>
  </g>
</svg>
