<svg xmlns="http://www.w3.org/2000/svg" width="15" height="10.383" viewBox="0 0 15 10.383">
  <g id="Grupo_658" data-name="Grupo 658" transform="translate(-2076.325 -1178.361)">
    <g id="Grupo_460" data-name="Grupo 460">
      <path id="Trazado_376" data-name="Trazado 376" d="M2083.825,1188.744a8.452,8.452,0,0,1-7.413-4.83.794.794,0,1,1,1.414-.722,6.521,6.521,0,0,0,12,0,.794.794,0,1,1,1.414.722A8.452,8.452,0,0,1,2083.825,1188.744Z" fill="#ff6d00"/>
      <path id="Trazado_377" data-name="Trazado 377" d="M2077.118,1184.347a.794.794,0,0,1-.706-1.155,8.451,8.451,0,0,1,7.413-4.831,7.739,7.739,0,0,1,.833.045.794.794,0,0,1-.17,1.579,6.8,6.8,0,0,0-6.662,3.929A.794.794,0,0,1,2077.118,1184.347Z" fill="#ff6d00"/>
      <path id="Trazado_378" data-name="Trazado 378" d="M2090.532,1184.347a.8.8,0,0,1-.708-.433,7.256,7.256,0,0,0-3.873-3.583.794.794,0,0,1,.552-1.488,8.837,8.837,0,0,1,4.735,4.349.794.794,0,0,1-.706,1.155Z" fill="#ff6d00"/>
    </g>
    <path id="Trazado_379" data-name="Trazado 379" d="M2083.825,1186.169a2.616,2.616,0,1,1,2.616-2.616A2.62,2.62,0,0,1,2083.825,1186.169Zm0-3.741a1.125,1.125,0,1,0,1.125,1.125A1.127,1.127,0,0,0,2083.825,1182.428Z" fill="#ff6d00"/>
  </g>
</svg>
