<svg id="options" xmlns="http://www.w3.org/2000/svg" width="18" height="14.116" viewBox="0 0 18 14.116">
  <path id="Trazado_387" data-name="Trazado 387" d="M1891.087,1060.541h-16.153a.923.923,0,0,1,0-1.846h16.153a.923.923,0,1,1,0,1.846Z" transform="translate(-1874.011 -1058.695)" fill="#44546a"/>
  <path id="Trazado_388" data-name="Trazado 388" d="M1883.011,1072.811h-8.077a.923.923,0,0,1,0-1.846h8.077a.923.923,0,0,1,0,1.846Z" transform="translate(-1874.011 -1058.695)" fill="#44546a"/>
  <path id="Trazado_389" data-name="Trazado 389" d="M1891.087,1066.676h-16.153a.923.923,0,0,1,0-1.846h16.153a.923.923,0,1,1,0,1.846Z" transform="translate(-1874.011 -1058.695)" fill="#44546a"/>
</svg>
