<svg xmlns="http://www.w3.org/2000/svg" width="12.001" height="12" viewBox="0 0 12.001 12">
  <g id="Grupo_391" data-name="Grupo 391" transform="translate(-1975.263 -1990.766)">
    <path id="Trazado_288" data-name="Trazado 288" d="M1985.763,2002.766h-9a1.5,1.5,0,0,1-1.5-1.5v-9a1.5,1.5,0,0,1,1.5-1.5h3.263a.6.6,0,0,1,0,1.2h-3.263a.3.3,0,0,0-.3.3v9a.3.3,0,0,0,.3.3h9a.3.3,0,0,0,.3-.3v-2.678a.6.6,0,1,1,1.2,0v2.678A1.5,1.5,0,0,1,1985.763,2002.766Z" fill="#ff6d00"/>
    <path id="Trazado_289" data-name="Trazado 289" d="M1986.663,1996.3a.6.6,0,0,1-.6-.6v-3.731h-3.337a.6.6,0,0,1,0-1.2h3.937a.6.6,0,0,1,.6.6v4.331A.6.6,0,0,1,1986.663,1996.3Z" fill="#ff6d00"/>
    <path id="Trazado_290" data-name="Trazado 290" d="M1981.263,1997.366a.6.6,0,0,1-.424-1.025l5.4-5.4a.6.6,0,0,1,.849.849l-5.4,5.4A.6.6,0,0,1,1981.263,1997.366Z" fill="#ff6d00"/>
  </g>
</svg>
