<svg xmlns="http://www.w3.org/2000/svg" width="16.563" height="16.555" viewBox="0 0 16.563 16.555">
  <path id="Trazado_401" data-name="Trazado 401" d="M2035.534,1992.291a6.505,6.505,0,0,0-4.627-1.915h-.007l-6.684.007,3.411-3.411a.974.974,0,0,0-1.377-1.377l-5.075,5.074a.966.966,0,0,0-.189.276c-.006.013-.015.025-.02.038a.99.99,0,0,0-.042.137c0,.016-.01.03-.014.046a.949.949,0,0,0-.019.192h0c0,.014,0,.026,0,.04a.931.931,0,0,0,.015.148.858.858,0,0,0,.035.117c.007.021.011.043.02.063a.977.977,0,0,0,.075.143c0,.008.008.017.013.024a1,1,0,0,0,.133.161l5.065,5.065a.974.974,0,0,0,1.377-1.377l-3.413-3.413,6.688-.007h0a4.6,4.6,0,0,1,4.6,4.6v3.968a.974.974,0,0,0,1.948,0v-3.968A6.5,6.5,0,0,0,2035.534,1992.291Z" transform="translate(-2020.89 -1985.31)" fill="#ff6d00"/>
</svg>
