<svg xmlns="http://www.w3.org/2000/svg" width="16" height="14.236" viewBox="0 0 16 14.236">
  <g id="Grupo_213" data-name="Grupo 213" transform="translate(4878.825 -405.933)">
    <path id="Trazado_266" data-name="Trazado 266" d="M-4868.423,415.949a3.535,3.535,0,0,1-3.531-3.531,3.535,3.535,0,0,1,3.531-3.531,3.535,3.535,0,0,1,3.531,3.531A3.535,3.535,0,0,1-4868.423,415.949Zm0-5.538a2.01,2.01,0,0,0-2.007,2.007,2.01,2.01,0,0,0,2.007,2.007,2.01,2.01,0,0,0,2.008-2.007A2.01,2.01,0,0,0-4868.423,410.411Z" fill="#44546a"/>
    <path id="Trazado_267" data-name="Trazado 267" d="M-4863.587,420.169a.762.762,0,0,1-.762-.762,3.461,3.461,0,0,0-3.457-3.458h-1.32a3.461,3.461,0,0,0-3.457,3.458.762.762,0,0,1-.762.762.762.762,0,0,1-.762-.762,4.987,4.987,0,0,1,4.981-4.982h1.32a4.987,4.987,0,0,1,4.981,4.982A.762.762,0,0,1-4863.587,420.169Z" fill="#44546a"/>
    <path id="Trazado_268" data-name="Trazado 268" d="M-4874.276,411.719a2.9,2.9,0,0,1-2.893-2.893,2.9,2.9,0,0,1,2.893-2.893,2.9,2.9,0,0,1,2.893,2.893A2.9,2.9,0,0,1-4874.276,411.719Zm0-4.262a1.371,1.371,0,0,0-1.369,1.369,1.371,1.371,0,0,0,1.369,1.369,1.37,1.37,0,0,0,1.369-1.369A1.37,1.37,0,0,0-4874.276,407.457Z" fill="#44546a"/>
    <path id="Trazado_269" data-name="Trazado 269" d="M-4878.063,414.966a.763.763,0,0,1-.762-.762,4.014,4.014,0,0,1,4.009-4.009h1.015a.761.761,0,0,1,.761.762.761.761,0,0,1-.761.762h-1.015a2.487,2.487,0,0,0-2.485,2.485A.763.763,0,0,1-4878.063,414.966Z" fill="#44546a"/>
    <path id="Trazado_270" data-name="Trazado 270" d="M-4871.691,412.854a.759.759,0,0,1-.579-.266,2.487,2.487,0,0,0-1.888-.869h-1.016a.762.762,0,0,1-.762-.762.762.762,0,0,1,.762-.762h1.016a4.009,4.009,0,0,1,3.045,1.4.764.764,0,0,1-.083,1.075A.76.76,0,0,1-4871.691,412.854Z" fill="#44546a"/>
  </g>
</svg>
