<svg xmlns="http://www.w3.org/2000/svg" width="17" height="14.856" viewBox="0 0 17 14.856">
  <g id="Grupo_370" data-name="Grupo 370" transform="translate(-1964.491 342.672)">
    <g id="Grupo_368" data-name="Grupo 368">
      <g id="Grupo_367" data-name="Grupo 367">
        <path id="Trazado_281" data-name="Trazado 281" d="M1970.7-332.558a3.84,3.84,0,0,1-3.835-3.836,3.839,3.839,0,0,1,3.835-3.835,3.84,3.84,0,0,1,3.836,3.835A3.841,3.841,0,0,1,1970.7-332.558Zm0-6.224a2.39,2.39,0,0,0-2.388,2.388,2.391,2.391,0,0,0,2.388,2.389,2.391,2.391,0,0,0,2.389-2.389A2.391,2.391,0,0,0,1970.7-338.782Z" fill="#44546a"/>
      </g>
      <path id="Trazado_282" data-name="Trazado 282" d="M1976.18-327.816a.724.724,0,0,1-.723-.724,4.023,4.023,0,0,0-4.018-4.018h-1.483a4.023,4.023,0,0,0-4.018,4.018.724.724,0,0,1-.724.724.724.724,0,0,1-.723-.724,5.472,5.472,0,0,1,5.465-5.465h1.483a5.472,5.472,0,0,1,5.465,5.465A.724.724,0,0,1,1976.18-327.816Z" fill="#44546a"/>
    </g>
    <path id="Trazado_283" data-name="Trazado 283" d="M1978.409-336.339a.724.724,0,0,1-.723-.724v-4.886a.723.723,0,0,1,.723-.723.724.724,0,0,1,.724.723v4.886A.724.724,0,0,1,1978.409-336.339Z" fill="#44546a"/>
    <g id="Grupo_369" data-name="Grupo 369">
      <path id="Trazado_284" data-name="Trazado 284" d="M1980.768-338.782h-4.817a.724.724,0,0,1-.724-.724.724.724,0,0,1,.724-.723h4.817a.723.723,0,0,1,.723.723A.724.724,0,0,1,1980.768-338.782Z" fill="#44546a"/>
    </g>
  </g>
</svg>
