<svg xmlns="http://www.w3.org/2000/svg" width="15" height="14.999" viewBox="0 0 15 14.999">
  <g id="Grupo_365" data-name="Grupo 365" transform="translate(-2009.037 -678.759)">
    <g id="Grupo_364" data-name="Grupo 364">
      <path id="Trazado_278" data-name="Trazado 278" d="M2019.963,693.758h-6.853a2.254,2.254,0,0,1-2.252-2.252V686.6a.753.753,0,1,1,1.506,0v4.906a.746.746,0,0,0,.746.745h6.853a.746.746,0,0,0,.746-.745V686.6a.753.753,0,0,1,1.507,0v4.906A2.255,2.255,0,0,1,2019.963,693.758Z" fill="#44546a"/>
      <path id="Trazado_279" data-name="Trazado 279" d="M2023.283,685.762a.748.748,0,0,1-.475-.17l-6.271-5.108-6.271,5.108a.753.753,0,1,1-.951-1.168l6.746-5.5a.753.753,0,0,1,.952,0l6.746,5.5a.754.754,0,0,1-.476,1.338Z" fill="#44546a"/>
    </g>
    <path id="Trazado_280" data-name="Trazado 280" d="M2016.537,688.694a1.5,1.5,0,1,1,1.5-1.5A1.5,1.5,0,0,1,2016.537,688.694Z" fill="#44546a"/>
  </g>
</svg>
