<svg xmlns="http://www.w3.org/2000/svg" width="15" height="15.345" viewBox="0 0 15 15.345">
  <g id="export-icon" transform="translate(-1925.491 -1037.497)">
    <path id="Trazado_298" data-name="Trazado 298" d="M1938.5,1052.842h-11.017a1.993,1.993,0,0,1-1.991-1.991V1048.7a2.267,2.267,0,0,1,.554-1.485l.943-1.085a.767.767,0,1,1,1.158,1.007l-.942,1.084a.728.728,0,0,0-.179.479v2.148a.457.457,0,0,0,.457.457H1938.5a.458.458,0,0,0,.457-.457V1048.7a.728.728,0,0,0-.179-.479l-.942-1.084a.767.767,0,1,1,1.158-1.007l.943,1.085a2.269,2.269,0,0,1,.555,1.485v2.148A1.994,1.994,0,0,1,1938.5,1052.842Z" fill="#ff6d00"/>
    <path id="Trazado_299" data-name="Trazado 299" d="M1932.99,1047.75a.763.763,0,0,1-.542-.224l-3.579-3.58a.767.767,0,1,1,1.085-1.085l3.036,3.037,3.037-3.037a.767.767,0,0,1,1.085,1.085l-3.579,3.58A.763.763,0,0,1,1932.99,1047.75Z" fill="#ff6d00"/>
    <path id="Trazado_300" data-name="Trazado 300" d="M1932.99,1047.57a.768.768,0,0,1-.767-.767v-8.538a.768.768,0,1,1,1.535,0v8.538A.768.768,0,0,1,1932.99,1047.57Z" fill="#ff6d00"/>
  </g>
</svg>
