<svg xmlns="http://www.w3.org/2000/svg" width="15" height="14.44" viewBox="0 0 15 14.44">
  <g id="Grupo_212" data-name="Grupo 212" transform="translate(4880.206 -335.125)">
    <g id="Grupo_211" data-name="Grupo 211">
      <path id="Trazado_263" data-name="Trazado 263" d="M-4877.257,348.819a2.087,2.087,0,0,1-.494-.06,2.051,2.051,0,0,1-1.276-.935l-.879-1.447a2.069,2.069,0,0,1,.694-2.839l4.894-2.972a.748.748,0,0,1,1.03.252.75.75,0,0,1-.251,1.03l-4.894,2.972a.567.567,0,0,0-.191.778l.879,1.447a.563.563,0,0,0,.35.256.558.558,0,0,0,.429-.066l4.941-3a.733.733,0,0,1,.475-.1l4.458.515-4.542-7.48-.891,2.409a.753.753,0,0,1-.964.443.75.75,0,0,1-.443-.964l1.194-3.225a1.069,1.069,0,0,1,.908-.7,1.075,1.075,0,0,1,1.026.515l5.441,8.958a1.073,1.073,0,0,1-.014,1.142,1.076,1.076,0,0,1-1.032.491l-5.058-.584-4.721,2.867A2.06,2.06,0,0,1-4877.257,348.819Z" fill="#44546a"/>
      <path id="Trazado_264" data-name="Trazado 264" d="M-4873.044,349.565a1.609,1.609,0,0,1-.382-.047,1.584,1.584,0,0,1-.986-.723l-.184-.3a.564.564,0,0,1,.189-.773.563.563,0,0,1,.772.189l.184.3a.471.471,0,0,0,.292.214.469.469,0,0,0,.358-.055.471.471,0,0,0,.214-.292.474.474,0,0,0-.055-.358l-.7-1.151-1.29.784a.561.561,0,0,1-.772-.189.562.562,0,0,1,.188-.773l1.77-1.075a.563.563,0,0,1,.426-.066.563.563,0,0,1,.347.255l.991,1.632a1.584,1.584,0,0,1,.187,1.208,1.591,1.591,0,0,1-.723.987A1.6,1.6,0,0,1-4873.044,349.565Z" fill="#44546a"/>
    </g>
    <path id="Trazado_265" data-name="Trazado 265" d="M-4871.635,345.626a.749.749,0,0,1-.638-.355l-2.275-3.669a.75.75,0,0,1,.242-1.033.75.75,0,0,1,1.032.243l2.275,3.669a.75.75,0,0,1-.242,1.033A.747.747,0,0,1-4871.635,345.626Z" fill="#44546a"/>
  </g>
</svg>
