<svg xmlns="http://www.w3.org/2000/svg" width="15" height="13.816" viewBox="0 0 15 13.816">
  <g id="Grupo_204" data-name="Grupo 204" transform="translate(4881.152 -1011.471)">
    <g id="Grupo_203" data-name="Grupo 203">
      <path id="Trazado_254" data-name="Trazado 254" d="M-4873.7,1025.287h-5.582a1.87,1.87,0,0,1-1.867-1.867v-10.082a1.87,1.87,0,0,1,1.867-1.867h5.582a.746.746,0,0,1,.747.747.747.747,0,0,1-.747.747h-5.582a.373.373,0,0,0-.373.373v10.082a.373.373,0,0,0,.373.373h5.582a.746.746,0,0,1,.747.747A.747.747,0,0,1-4873.7,1025.287Z" fill="#44546a"/>
      <path id="Trazado_255" data-name="Trazado 255" d="M-4870.678,1023.379a.742.742,0,0,1-.528-.219l-4.254-4.253a.747.747,0,0,1-.219-.528.747.747,0,0,1,.219-.528l4.254-4.254a.746.746,0,0,1,1.056,0,.748.748,0,0,1,0,1.056l-3.726,3.726,3.726,3.725a.748.748,0,0,1,0,1.056A.744.744,0,0,1-4870.678,1023.379Z" fill="#44546a"/>
      <path id="Trazado_256" data-name="Trazado 256" d="M-4866.9,1019.126h-7.853a.747.747,0,0,1-.747-.747.746.746,0,0,1,.747-.747h7.853a.746.746,0,0,1,.747.747A.747.747,0,0,1-4866.9,1019.126Z" fill="#44546a"/>
    </g>
  </g>
</svg>
