<svg xmlns="http://www.w3.org/2000/svg" width="48.219" height="59.482" viewBox="0 0 48.219 59.482">
  <g id="Grupo_1247" data-name="Grupo 1247" transform="translate(-254.471 -277.755)">
    <path id="Trazado_990" data-name="Trazado 990" d="M263.268,288.989a5.617,5.617,0,1,1,5.62-5.614A5.618,5.618,0,0,1,263.268,288.989Zm0-9.024a3.411,3.411,0,1,0,3.411,3.411A3.417,3.417,0,0,0,263.268,279.964Z" transform="translate(14.94)" fill="#ff6d00"/>
    <path id="Trazado_991" data-name="Trazado 991" d="M260.962,316.059a3.483,3.483,0,0,1-3.359-3.331V282.313a1.1,1.1,0,0,1,2.209,0v30.416a1.279,1.279,0,0,0,1.15,1.122c.325,0,.86,0,.86-1.053V295.266a1.1,1.1,0,0,1,2.209,0V312.8A2.972,2.972,0,0,1,260.962,316.059Z" transform="translate(14.701 16.207)" fill="#ff6d00"/>
    <path id="Trazado_992" data-name="Trazado 992" d="M268.466,306.579c-1.093,0-2.357-.034-3.468-.057-.888-.023-1.731-.046-2.306-.046a3.12,3.12,0,0,1-3.291-3.16,3.264,3.264,0,0,1,3.046-3.029l-3.16-4.042a1.1,1.1,0,0,1,1.737-1.361l4.549,5.825a1.089,1.089,0,0,1,.12,1.162,1.106,1.106,0,0,1-.991.62H262.63c-.3,0-1.025.325-1.025.826a.959.959,0,0,0,1.087.957c.6,0,1.458.017,2.357.04,1.1.028,2.346.057,3.416.057a1.051,1.051,0,0,0,.985-.6,1.156,1.156,0,0,0-.091-1.213c-1.042-1.332-7.772-10.363-8.062-10.744a1.146,1.146,0,0,1-.216-.66v-8.831a1.1,1.1,0,1,1,2.209,0v8.466c1.19,1.6,6.889,9.229,7.812,10.414a3.37,3.37,0,0,1,.33,3.536A3.233,3.233,0,0,1,268.466,306.579Z" transform="translate(21.506 16.235)" fill="#ff6d00"/>
    <path id="Trazado_993" data-name="Trazado 993" d="M268.757,288.947h-.046a84.885,84.885,0,0,1-10.636-1.1l-.074-.017c-2.915-.757-3.53-2.471-3.53-3.775a3.9,3.9,0,0,1,1.241-2.972,3.82,3.82,0,0,1,3.046-.871c.535.063,13.283,1.537,20.361,1.218,6.377-.29,16.016-.718,18.169-1.2a5.116,5.116,0,0,1,3.866.342,3.409,3.409,0,0,1,1.457,2.277,3.367,3.367,0,0,1-2.528,4.071c-.2.051-.41.12-.643.193-1.355.438-3.217,1.042-10.727,1.412a1.1,1.1,0,1,1-.114-2.2c7.225-.359,9-.928,10.163-1.309.256-.08.5-.16.757-.228a1.192,1.192,0,0,0,.934-1.486,1.2,1.2,0,0,0-.5-.871,3.106,3.106,0,0,0-2.192-.046c-2.164.478-10.01.865-18.55,1.247-7.248.325-20.167-1.161-20.714-1.23a1.493,1.493,0,0,0-1.822,1.651c0,.569.222,1.2,1.845,1.628a84.435,84.435,0,0,0,10.271,1.065,1.1,1.1,0,0,1-.04,2.2Z" transform="translate(0 10.587)" fill="#ff6d00"/>
    <path id="Trazado_994" data-name="Trazado 994" d="M293.822,290.018H256.631a1.1,1.1,0,1,1,0-2.2h37.191a1.1,1.1,0,1,1,0,2.2Z" transform="translate(4.952 47.219)" fill="#099baa"/>
  </g>
</svg>
