<svg xmlns="http://www.w3.org/2000/svg" viewBox="0 0 45.37 41.77"><defs><style>.cls-1{fill:#ff6d00;}.cls-2{fill:#099baa;}</style></defs><title>Recurso 1</title><g id="Capa_2" data-name="Capa 2"><g id="Capa_1-2" data-name="Capa 1"><path class="cls-1" d="M31.33,39.6,45.19,27.81a.51.51,0,0,0,.09-.68h0a7.29,7.29,0,0,0-4-3,6.81,6.81,0,0,0-5.64.91L27.29,31a.17.17,0,0,1-.1,0H24.65a.18.18,0,0,1-.14-.29l.37-.47a7,7,0,0,0,1.55-4.4h0a.8.8,0,0,0-.8-.8H19.4a18.41,18.41,0,0,1-7.67-1.74,8.07,8.07,0,0,0-3.45-.76A8.28,8.28,0,0,0,0,30.83V39a2.83,2.83,0,0,0,2.82,2.82H25.45A9,9,0,0,0,31.33,39.6ZM1.74,30.83a6.54,6.54,0,0,1,6.54-6.54,6.35,6.35,0,0,1,2.72.6,20.06,20.06,0,0,0,8.4,1.9h5.26l-.2.65A5.07,5.07,0,0,1,19.61,31h-6.3a.85.85,0,0,0-.86.85h0a.88.88,0,0,0,.88.89H26.91a2.77,2.77,0,0,0,1.62-.52l8.1-5.74a5.15,5.15,0,0,1,6.12.34l.45.38-13,11.07A7.36,7.36,0,0,1,25.45,40H3.27a1.51,1.51,0,0,1-1.51-1.52Z"/><path class="cls-2" d="M31,14.13c2.35-3.45,1.32-9.26,1.27-9.51l-.14-.79-.77.25a28.76,28.76,0,0,0-4.56,2l-.38.2-.18-.39a38.71,38.71,0,0,0-3-5.09L22.72,0l-.57.81a37,37,0,0,0-3,5.09L19,6.29l-.38-.2a30.27,30.27,0,0,0-4.55-2l-.77-.25-.15.79c0,.25-1.07,6.08,1.27,9.51A12,12,0,0,0,18.59,18a5.33,5.33,0,0,0,4,.61l.12,0,.13,0a5.31,5.31,0,0,0,4-.61A11.88,11.88,0,0,0,31,14.13ZM18.08,16a11.12,11.12,0,0,1-2.5-2.65C14.17,11.27,14.21,8,14.36,6.25l.05-.55.51.2a30.26,30.26,0,0,1,3.23,1.54l.3.17-.11.32A9.41,9.41,0,0,0,17.71,11a10.13,10.13,0,0,0,1,4.48L19.45,17Zm4.64,1.09a3.18,3.18,0,0,1-2.45-1.66A8.45,8.45,0,0,1,19.12,11c0-2.52,2.28-6.43,3.26-8l.34-.55.34.55c1,1.56,3.26,5.46,3.26,8a8.45,8.45,0,0,1-1.15,4.41A3.16,3.16,0,0,1,22.72,17.07ZM27.36,16,26,17l.75-1.52a10.13,10.13,0,0,0,1-4.48,9.69,9.69,0,0,0-.62-3.07L27,7.61l.29-.17A30.28,30.28,0,0,1,30.53,5.9L31,5.7l.05.55c.11,1.42.23,4.95-1.23,7.08A10.93,10.93,0,0,1,27.36,16Z"/></g></g></svg>