<svg xmlns="http://www.w3.org/2000/svg" width="60.253" height="60.253" viewBox="0 0 60.253 60.253">
  <g id="Page-1" transform="translate(-518.225 -455.975)">
    <g id="Grupo_314" data-name="Grupo 314">
      <path id="Shape" d="M559.4,455.975a19.08,19.08,0,1,0,19.08,19.08A19.079,19.079,0,0,0,559.4,455.975Zm0,36.152a17.072,17.072,0,1,1,17.071-17.072A17.072,17.072,0,0,1,559.4,492.127Z" fill="#ff6d00"/>
      <path id="Trazado_323" data-name="Trazado 323" d="M522.488,503.909a6.527,6.527,0,0,0,5.629,8.27,7.523,7.523,0,0,0,13.205.259,7.523,7.523,0,0,0,13.2-.259,6.527,6.527,0,0,0,5.629-8.27,6.047,6.047,0,0,0,4.263-5.757,5.566,5.566,0,0,0-.235-1.642,1,1,0,0,0-1.92.593,3.548,3.548,0,0,1,.146,1.049,4.024,4.024,0,0,1-3.708,4,1,1,0,0,0-.813,1.474,4.388,4.388,0,0,1,.505,2.057,4.524,4.524,0,0,1-4.519,4.519,1,1,0,0,0-.927.618,5.523,5.523,0,1,1-5.1-7.647,1,1,0,1,0,0-2.009,7.5,7.5,0,0,0-5.523,2.429V487.728a1,1,0,1,0-2.008,0V508.7A5.523,5.523,0,0,1,529.7,510.82a1,1,0,0,0-.927-.618,4.524,4.524,0,0,1-4.519-4.519,4.387,4.387,0,0,1,.5-2.057,1,1,0,0,0-.813-1.474,4.024,4.024,0,0,1-3.706-4,3.968,3.968,0,0,1,.938-2.565,7.487,7.487,0,0,0,4.585,1.561,1,1,0,0,0,0-2.009,5.523,5.523,0,0,1-3.637-9.678,1.138,1.138,0,0,0,.308-1.022,5.021,5.021,0,1,1,9.856-1.35,1,1,0,0,0,2.009,0,7.03,7.03,0,0,0-6.684-7.013,3.513,3.513,0,0,1,2-4.837,3.294,3.294,0,0,1,1.167-.2,3.517,3.517,0,0,1,3.515,3.515,1,1,0,1,0,2.008,0,5.528,5.528,0,0,0-3.778-5.236c3.58-2.162,5.393-2.154,6.214-1.891a1,1,0,1,0,.611-1.911c-2.443-.782-5.917.5-10.605,3.922a5.479,5.479,0,0,0-3.2,6.847,6.924,6.924,0,0,0-5.172,8.087,7.5,7.5,0,0,0-.611,9.786,5.966,5.966,0,0,0-1.531,3.995,6.047,6.047,0,0,0,4.263,5.757Z" fill="#ff6d00"/>
      <path id="Trazado_324" data-name="Trazado 324" d="M537.1,486.492a1,1,0,0,0-1.42,0,5.523,5.523,0,0,1-9.425-3.9,1,1,0,1,0-2.009,0,7.54,7.54,0,0,0,5.772,7.315,3.526,3.526,0,0,1-2.871,2.2,1,1,0,0,0,.112,2,1.034,1.034,0,0,0,.111-.006,5.555,5.555,0,0,0,4.709-4,7.463,7.463,0,0,0,5.021-2.194,1,1,0,0,0,0-1.417Z" fill="#ff6d00"/>
      <path id="Trazado_325" data-name="Trazado 325" d="M536.3,497.148a1,1,0,0,0,0-2.009,7.038,7.038,0,0,0-7.029,7.03c0,.027.005.054.005.081a6.829,6.829,0,0,0-1.01-.081,1,1,0,1,0,0,2.008,5.026,5.026,0,0,1,5.021,5.021,1,1,0,0,0,2.009,0,7.03,7.03,0,0,0-3.959-6.313,4.91,4.91,0,0,1-.058-.716A5.026,5.026,0,0,1,536.3,497.148Z" fill="#ff6d00"/>
      <path id="Trazado_326" data-name="Trazado 326" d="M547.347,496.143a1,1,0,0,0,0,2.009,5.026,5.026,0,0,1,5.021,5.021,4.9,4.9,0,0,1-.058.716,7.027,7.027,0,0,0-3.958,6.313,1,1,0,1,0,2.008,0,5.027,5.027,0,0,1,5.021-5.021,1,1,0,1,0,0-2.008,6.955,6.955,0,0,0-1.009.081c0-.027.005-.054.005-.081A7.038,7.038,0,0,0,547.347,496.143Z" fill="#ff6d00"/>
      <path id="Trazado_327" data-name="Trazado 327" d="M566.248,472.065v-1.942a1.522,1.522,0,0,0-1.522-1.522h-1.942a3.206,3.206,0,0,0,.42-1.522c0-1.708-1.675-3.045-3.806-3.045s-3.806,1.337-3.806,3.045a3.194,3.194,0,0,0,.419,1.522H554.07a1.523,1.523,0,0,0-1.523,1.522v1.942a3.191,3.191,0,0,0-1.522-.419c-1.707,0-3.045,1.674-3.045,3.806s1.338,3.806,3.045,3.806a3.2,3.2,0,0,0,1.522-.42v2.7a1.522,1.522,0,0,0,1.523,1.522h2.675a1.124,1.124,0,0,0,1.036-.666,1.146,1.146,0,0,0-.182-1.227,1.9,1.9,0,0,1-.485-1.151c0-.825,1.046-1.523,2.284-1.523s2.283.7,2.283,1.523a1.892,1.892,0,0,1-.485,1.151,1.148,1.148,0,0,0-.181,1.227,1.124,1.124,0,0,0,1.036.666h2.675a1.521,1.521,0,0,0,1.522-1.522v-2.7a3.207,3.207,0,0,0,1.523.42c1.707,0,3.044-1.675,3.044-3.806s-1.337-3.806-3.044-3.806A3.2,3.2,0,0,0,566.248,472.065Zm3.045,3.387c0,1.237-.7,2.283-1.522,2.283a1.9,1.9,0,0,1-1.152-.485,1.142,1.142,0,0,0-1.227-.182,1.127,1.127,0,0,0-.666,1.036v3.437h-1.942a3.2,3.2,0,0,0,.42-1.522c0-1.708-1.675-3.045-3.806-3.045s-3.806,1.337-3.806,3.045a3.214,3.214,0,0,0,.419,1.522H554.07V478.1a1.127,1.127,0,0,0-.666-1.036,1.147,1.147,0,0,0-1.228.182,1.9,1.9,0,0,1-1.151.485c-.825,0-1.523-1.046-1.523-2.283s.7-2.284,1.523-2.284a1.9,1.9,0,0,1,1.151.485,1.143,1.143,0,0,0,1.228.182,1.126,1.126,0,0,0,.666-1.036v-2.676h2.675a1.124,1.124,0,0,0,1.036-.666,1.15,1.15,0,0,0-.183-1.229,1.89,1.89,0,0,1-.484-1.149c0-.825,1.046-1.523,2.284-1.523s2.283.7,2.283,1.523a1.892,1.892,0,0,1-.485,1.151,1.148,1.148,0,0,0-.181,1.227,1.124,1.124,0,0,0,1.036.666h2.675V472.8a1.126,1.126,0,0,0,.666,1.036,1.144,1.144,0,0,0,1.228-.182,1.9,1.9,0,0,1,1.151-.485c.825,0,1.522,1.046,1.522,2.284Z" fill="#099baa"/>
    </g>
  </g>
</svg>
