<svg xmlns="http://www.w3.org/2000/svg" width="60.252" height="60.253" viewBox="0 0 60.252 60.253">
  <g id="Grupo_1167" data-name="Grupo 1167" transform="translate(-518.252 -294.29)">
    <g id="Page-1">
      <g id="Grupo_312" data-name="Grupo 312">
        <path id="Shape" d="M559.424,294.29a19.08,19.08,0,1,0,19.08,19.08A19.081,19.081,0,0,0,559.424,294.29Zm0,36.152A17.071,17.071,0,1,1,576.5,313.37,17.071,17.071,0,0,1,559.424,330.442Z" fill="#ff6d00"/>
        <path id="Trazado_318" data-name="Trazado 318" d="M522.515,342.224a6.527,6.527,0,0,0,5.628,8.27,7.524,7.524,0,0,0,13.206.259,7.523,7.523,0,0,0,13.205-.259,6.529,6.529,0,0,0,5.629-8.27,6.048,6.048,0,0,0,4.263-5.757,5.636,5.636,0,0,0-.235-1.642,1.005,1.005,0,0,0-1.921.594,3.54,3.54,0,0,1,.147,1.048,4.023,4.023,0,0,1-3.708,4,1,1,0,0,0-.813,1.474,4.38,4.38,0,0,1,.5,2.058,4.524,4.524,0,0,1-4.519,4.519,1,1,0,0,0-.927.617,5.523,5.523,0,1,1-5.1-7.647,1,1,0,1,0,0-2.008,7.5,7.5,0,0,0-5.523,2.428V326.043a1,1,0,0,0-2.009,0v20.968a5.523,5.523,0,0,1-10.621,2.124,1,1,0,0,0-.927-.617A4.525,4.525,0,0,1,524.277,344a4.39,4.39,0,0,1,.5-2.058,1,1,0,0,0-.812-1.474,4.024,4.024,0,0,1-3.707-4,3.975,3.975,0,0,1,.938-2.565,7.487,7.487,0,0,0,4.585,1.561,1,1,0,1,0,0-2.009,5.523,5.523,0,0,1-3.637-9.678,1.132,1.132,0,0,0,.308-1.021,5.1,5.1,0,0,1-.185-1.351,5.021,5.021,0,1,1,10.042,0,1,1,0,1,0,2.008,0,7.028,7.028,0,0,0-6.684-7.012,3.516,3.516,0,0,1,2-4.838,3.29,3.29,0,0,1,1.166-.2,3.515,3.515,0,0,1,3.515,3.515,1,1,0,0,0,2.009,0,5.532,5.532,0,0,0-3.778-5.236c3.58-2.162,5.392-2.154,6.214-1.891a1,1,0,1,0,.61-1.911c-2.443-.782-5.916.5-10.6,3.923a5.477,5.477,0,0,0-3.2,6.846,6.923,6.923,0,0,0-5.172,8.087,7.5,7.5,0,0,0-.612,9.786,5.97,5.97,0,0,0-1.53,4,6.046,6.046,0,0,0,4.263,5.757Z" fill="#ff6d00"/>
        <path id="Trazado_319" data-name="Trazado 319" d="M537.131,324.807a1,1,0,0,0-1.42,0,5.523,5.523,0,0,1-9.425-3.9,1,1,0,0,0-2.009,0,7.54,7.54,0,0,0,5.771,7.316,3.525,3.525,0,0,1-2.871,2.2,1,1,0,0,0,.223,2,5.554,5.554,0,0,0,4.71-4,7.46,7.46,0,0,0,5.021-2.194,1,1,0,0,0,0-1.417Z" fill="#ff6d00"/>
        <path id="Trazado_320" data-name="Trazado 320" d="M536.328,335.463a1,1,0,0,0,0-2.009,7.039,7.039,0,0,0-7.03,7.03c0,.027.005.054.005.081a7.1,7.1,0,0,0-1.009-.081,1,1,0,1,0,0,2.008,5.027,5.027,0,0,1,5.021,5.021,1,1,0,1,0,2.008,0,7.027,7.027,0,0,0-3.958-6.313,4.767,4.767,0,0,1-.058-.716A5.026,5.026,0,0,1,536.328,335.463Z" fill="#ff6d00"/>
        <path id="Trazado_321" data-name="Trazado 321" d="M547.374,334.459a1,1,0,1,0,0,2.008,5.027,5.027,0,0,1,5.021,5.021,4.9,4.9,0,0,1-.058.716,7.031,7.031,0,0,0-3.959,6.314,1,1,0,0,0,2.009,0,5.026,5.026,0,0,1,5.021-5.021,1,1,0,0,0,0-2.009,6.969,6.969,0,0,0-1.01.082c0-.028.005-.055.005-.082A7.037,7.037,0,0,0,547.374,334.459Z" fill="#ff6d00"/>
      </g>
    </g>
    <path id="Trazado_322" data-name="Trazado 322" d="M559.542,322.439a.88.88,0,0,1-.449-.123,26.184,26.184,0,0,1-6.525-5.352c-2.1-2.478-3.009-4.963-2.636-7.187a5.114,5.114,0,0,1,4.229-4.214,5.71,5.71,0,0,1,5.384,2.037,5.628,5.628,0,0,1,5.219-2.045,5.272,5.272,0,0,1,4.383,4.193c.956,4.708-4.1,9.579-9.155,12.568A.883.883,0,0,1,559.542,322.439ZM555.1,307.248a3.672,3.672,0,0,0-.632.054,3.327,3.327,0,0,0-2.795,2.767c-.591,3.53,3.459,7.733,7.87,10.457,4.2-2.585,8.621-6.754,7.875-10.427a3.521,3.521,0,0,0-2.928-2.8,4.057,4.057,0,0,0-4.178,2.28.883.883,0,0,1-1.538,0A4.2,4.2,0,0,0,555.1,307.248Z" fill="#099baa"/>
  </g>
</svg>
