<svg xmlns="http://www.w3.org/2000/svg" width="44" height="54" viewBox="0 0 44 54"><g><g><g><path fill="#ff6d00" d="M24.605 5.092a3.095 3.095 0 0 1-3.091 3.09 3.094 3.094 0 0 1-3.09-3.09A3.094 3.094 0 0 1 21.514 2a3.095 3.095 0 0 1 3.091 3.09zm2.001 0A5.097 5.097 0 0 0 21.514 0a5.097 5.097 0 0 0-5.091 5.092 5.097 5.097 0 0 0 5.091 5.09 5.097 5.097 0 0 0 5.092-5.09z"/></g><g><path fill="#ff6d00" d="M19.208 49.407c-1.744 0-3.046-1.592-3.046-3.016V18.82a1 1 0 0 1 2 0v27.57c0 .31.395 1.016 1.046 1.016.291 0 .778 0 .778-.957V30.56a1 1 0 1 1 2 0v15.89c0 1.797-1.09 2.957-2.778 2.957z"/></g><g><path fill="#ff6d00" d="M32.174 40.84c-.991 0-2.135-.028-3.143-.052-.806-.02-1.567-.037-2.088-.037-1.73 0-2.986-1.206-2.986-2.868 0-1.628 1.557-2.656 2.762-2.743l-2.864-3.667a1 1 0 0 1 1.577-1.232l4.121 5.277a1 1 0 0 1-.788 1.616h-1.881c-.267 0-.927.299-.927.749 0 .783.69.867.986.867.545 0 1.318.019 2.135.038.998.024 2.128.05 3.096.05a.947.947 0 0 0 .894-.547c.181-.371.149-.802-.082-1.097-.945-1.21-7.047-9.393-7.306-9.741a1 1 0 0 1-.198-.598V18.85a1 1 0 1 1 2 0v7.672c1.082 1.451 6.244 8.368 7.081 9.44.698.894.816 2.152.303 3.205-.511 1.047-1.518 1.672-2.692 1.672z"/></g><g><path fill="#ff6d00" d="M12.944 19.74l-.038-.001c-.219-.008-5.426-.207-9.641-1.002a.757.757 0 0 1-.066-.015c-2.644-.686-3.2-2.238-3.2-3.42 0-1.093.399-2.051 1.122-2.695.71-.632 1.691-.912 2.761-.788.489.057 12.043 1.389 18.457 1.1 5.78-.258 14.514-.65 16.469-1.083.965-.213 2.378-.413 3.504.313.682.441 1.127 1.134 1.32 2.061.295 1.408-.296 3.163-2.29 3.691-.189.05-.371.108-.583.177-1.231.397-2.917.94-9.727 1.28a1.001 1.001 0 0 1-.1-1.998c6.547-.325 8.15-.843 9.213-1.186.229-.074.445-.144.685-.207.99-.263.897-1.097.845-1.347-.121-.579-.368-.738-.448-.79-.368-.237-1.036-.251-1.986-.04-1.962.434-9.072.782-16.812 1.129-6.572.295-18.283-1.055-18.778-1.113-.35-.04-.843-.022-1.2.295-.291.259-.451.686-.451 1.202 0 .511.199 1.086 1.67 1.474 4.064.763 9.257.96 9.31.963a1 1 0 1 1-.036 2z"/></g><g><path fill="#099baa" d="M40.154 53.915H6.444a1 1 0 1 1 0-2.001h33.71a1 1 0 0 1 0 2z"/></g></g></g></svg>